<mxfile host="app.diagrams.net" modified="2023-08-25T05:12:46.623Z" agent="Mozilla/5.0 (Windows NT 10.0; Win64; x64) AppleWebKit/537.36 (KHTML, like Gecko) Chrome/116.0.0.0 Safari/537.36" etag="OqwLlhIT6E5WymSB7AAa" version="21.6.9" type="github">
  <diagram name="페이지-1" id="HA1gNrNOC0gQcXItmmGi">
    <mxGraphModel dx="4044" dy="1303" grid="1" gridSize="9" guides="1" tooltips="1" connect="1" arrows="1" fold="1" page="1" pageScale="1" pageWidth="827" pageHeight="1169" math="0" shadow="0">
      <root>
        <mxCell id="0" />
        <mxCell id="1" parent="0" />
        <mxCell id="ZXrHhs4DNnQvtguSSP1A-15" value="" style="rounded=0;orthogonalLoop=1;jettySize=auto;html=1;endArrow=none;endFill=0;" parent="1" source="ZXrHhs4DNnQvtguSSP1A-1" target="ZXrHhs4DNnQvtguSSP1A-5" edge="1">
          <mxGeometry relative="1" as="geometry" />
        </mxCell>
        <mxCell id="ZXrHhs4DNnQvtguSSP1A-1" value="CART&lt;br&gt;PAKAGE" style="whiteSpace=wrap;html=1;aspect=fixed;" parent="1" vertex="1">
          <mxGeometry x="364" y="180" width="120" height="120" as="geometry" />
        </mxCell>
        <mxCell id="ZXrHhs4DNnQvtguSSP1A-4" style="edgeStyle=orthogonalEdgeStyle;rounded=0;orthogonalLoop=1;jettySize=auto;html=1;exitX=0.5;exitY=1;exitDx=0;exitDy=0;" parent="1" source="ZXrHhs4DNnQvtguSSP1A-1" target="ZXrHhs4DNnQvtguSSP1A-1" edge="1">
          <mxGeometry relative="1" as="geometry" />
        </mxCell>
        <mxCell id="ZXrHhs4DNnQvtguSSP1A-26" value="" style="edgeStyle=orthogonalEdgeStyle;rounded=0;orthogonalLoop=1;jettySize=auto;html=1;" parent="1" source="ZXrHhs4DNnQvtguSSP1A-5" target="ZXrHhs4DNnQvtguSSP1A-25" edge="1">
          <mxGeometry relative="1" as="geometry" />
        </mxCell>
        <mxCell id="ZXrHhs4DNnQvtguSSP1A-5" value="CART&lt;br&gt;CONTROLLER" style="whiteSpace=wrap;html=1;" parent="1" vertex="1">
          <mxGeometry x="364" y="385" width="120" height="60" as="geometry" />
        </mxCell>
        <mxCell id="ZXrHhs4DNnQvtguSSP1A-28" value="" style="edgeStyle=orthogonalEdgeStyle;rounded=0;orthogonalLoop=1;jettySize=auto;html=1;" parent="1" source="ZXrHhs4DNnQvtguSSP1A-7" target="ZXrHhs4DNnQvtguSSP1A-27" edge="1">
          <mxGeometry relative="1" as="geometry" />
        </mxCell>
        <mxCell id="ZXrHhs4DNnQvtguSSP1A-7" value="CART&lt;br&gt;SERVICE" style="whiteSpace=wrap;html=1;" parent="1" vertex="1">
          <mxGeometry x="514" y="385" width="120" height="60" as="geometry" />
        </mxCell>
        <mxCell id="ZXrHhs4DNnQvtguSSP1A-30" value="" style="edgeStyle=orthogonalEdgeStyle;rounded=0;orthogonalLoop=1;jettySize=auto;html=1;" parent="1" source="ZXrHhs4DNnQvtguSSP1A-9" target="ZXrHhs4DNnQvtguSSP1A-29" edge="1">
          <mxGeometry relative="1" as="geometry" />
        </mxCell>
        <mxCell id="ZXrHhs4DNnQvtguSSP1A-9" value="CART&lt;br&gt;REPOSITORY" style="whiteSpace=wrap;html=1;" parent="1" vertex="1">
          <mxGeometry x="664" y="385" width="120" height="60" as="geometry" />
        </mxCell>
        <mxCell id="ZXrHhs4DNnQvtguSSP1A-24" value="" style="edgeStyle=orthogonalEdgeStyle;rounded=0;orthogonalLoop=1;jettySize=auto;html=1;" parent="1" source="ZXrHhs4DNnQvtguSSP1A-11" target="ZXrHhs4DNnQvtguSSP1A-23" edge="1">
          <mxGeometry relative="1" as="geometry" />
        </mxCell>
        <mxCell id="ZXrHhs4DNnQvtguSSP1A-11" value="CART&lt;br&gt;DTO" style="whiteSpace=wrap;html=1;" parent="1" vertex="1">
          <mxGeometry x="214" y="385" width="120" height="60" as="geometry" />
        </mxCell>
        <mxCell id="ZXrHhs4DNnQvtguSSP1A-22" value="" style="edgeStyle=orthogonalEdgeStyle;rounded=0;orthogonalLoop=1;jettySize=auto;html=1;" parent="1" source="ZXrHhs4DNnQvtguSSP1A-13" target="ZXrHhs4DNnQvtguSSP1A-21" edge="1">
          <mxGeometry relative="1" as="geometry" />
        </mxCell>
        <mxCell id="ZXrHhs4DNnQvtguSSP1A-13" value="CART&lt;br style=&quot;border-color: var(--border-color);&quot;&gt;DOMAIN" style="whiteSpace=wrap;html=1;" parent="1" vertex="1">
          <mxGeometry x="64" y="385" width="120" height="60" as="geometry" />
        </mxCell>
        <mxCell id="ZXrHhs4DNnQvtguSSP1A-16" value="" style="endArrow=none;html=1;rounded=0;exitX=0.5;exitY=0;exitDx=0;exitDy=0;" parent="1" source="ZXrHhs4DNnQvtguSSP1A-7" edge="1">
          <mxGeometry width="50" height="50" relative="1" as="geometry">
            <mxPoint x="574" y="380" as="sourcePoint" />
            <mxPoint x="419" y="350" as="targetPoint" />
            <Array as="points">
              <mxPoint x="574" y="350" />
            </Array>
          </mxGeometry>
        </mxCell>
        <mxCell id="ZXrHhs4DNnQvtguSSP1A-17" value="" style="endArrow=none;html=1;rounded=0;exitX=0.5;exitY=0;exitDx=0;exitDy=0;" parent="1" source="ZXrHhs4DNnQvtguSSP1A-11" edge="1">
          <mxGeometry width="50" height="50" relative="1" as="geometry">
            <mxPoint x="274" y="380" as="sourcePoint" />
            <mxPoint x="419" y="350" as="targetPoint" />
            <Array as="points">
              <mxPoint x="274" y="350" />
            </Array>
          </mxGeometry>
        </mxCell>
        <mxCell id="ZXrHhs4DNnQvtguSSP1A-18" value="" style="endArrow=none;html=1;rounded=0;exitX=0.5;exitY=0;exitDx=0;exitDy=0;" parent="1" source="ZXrHhs4DNnQvtguSSP1A-13" edge="1">
          <mxGeometry width="50" height="50" relative="1" as="geometry">
            <mxPoint x="374" y="470" as="sourcePoint" />
            <mxPoint x="419" y="350" as="targetPoint" />
            <Array as="points">
              <mxPoint x="124" y="350" />
            </Array>
          </mxGeometry>
        </mxCell>
        <mxCell id="ZXrHhs4DNnQvtguSSP1A-20" value="" style="endArrow=none;html=1;rounded=0;exitX=0.549;exitY=-0.003;exitDx=0;exitDy=0;exitPerimeter=0;" parent="1" source="ZXrHhs4DNnQvtguSSP1A-9" edge="1">
          <mxGeometry width="50" height="50" relative="1" as="geometry">
            <mxPoint x="374" y="470" as="sourcePoint" />
            <mxPoint x="419" y="350" as="targetPoint" />
            <Array as="points">
              <mxPoint x="730" y="350" />
            </Array>
          </mxGeometry>
        </mxCell>
        <mxCell id="ZXrHhs4DNnQvtguSSP1A-21" value="&lt;font style=&quot;font-size: 12px;&quot;&gt;private int cartIdx&lt;br style=&quot;box-sizing: inherit; color: rgb(29, 28, 29); font-family: NotoSansKR, Slack-Lato, Slack-Fractions, appleLogo, sans-serif; font-variant-ligatures: common-ligatures; text-align: left; background-color: rgb(255, 255, 255);&quot;&gt;&lt;span style=&quot;color: rgb(29, 28, 29); font-family: NotoSansKR, Slack-Lato, Slack-Fractions, appleLogo, sans-serif; font-variant-ligatures: common-ligatures; text-align: left; background-color: rgb(255, 255, 255);&quot;&gt;private int memberIdx&lt;/span&gt;&lt;br style=&quot;box-sizing: inherit; color: rgb(29, 28, 29); font-family: NotoSansKR, Slack-Lato, Slack-Fractions, appleLogo, sans-serif; font-variant-ligatures: common-ligatures; text-align: left; background-color: rgb(255, 255, 255);&quot;&gt;&lt;span style=&quot;color: rgb(29, 28, 29); font-family: NotoSansKR, Slack-Lato, Slack-Fractions, appleLogo, sans-serif; font-variant-ligatures: common-ligatures; text-align: left; background-color: rgb(255, 255, 255);&quot;&gt;private int productIdx&lt;/span&gt;&lt;br style=&quot;box-sizing: inherit; color: rgb(29, 28, 29); font-family: NotoSansKR, Slack-Lato, Slack-Fractions, appleLogo, sans-serif; font-variant-ligatures: common-ligatures; text-align: left; background-color: rgb(255, 255, 255);&quot;&gt;&lt;span style=&quot;color: rgb(29, 28, 29); font-family: NotoSansKR, Slack-Lato, Slack-Fractions, appleLogo, sans-serif; font-variant-ligatures: common-ligatures; text-align: left; background-color: rgb(255, 255, 255);&quot;&gt;private int orderCount&lt;/span&gt;&lt;/font&gt;" style="whiteSpace=wrap;html=1;" parent="1" vertex="1">
          <mxGeometry x="54" y="525" width="140" height="365" as="geometry" />
        </mxCell>
        <mxCell id="ZXrHhs4DNnQvtguSSP1A-23" value="" style="whiteSpace=wrap;html=1;" parent="1" vertex="1">
          <mxGeometry x="204" y="525" width="140" height="365" as="geometry" />
        </mxCell>
        <mxCell id="ZXrHhs4DNnQvtguSSP1A-25" value="" style="whiteSpace=wrap;html=1;" parent="1" vertex="1">
          <mxGeometry x="354" y="525" width="140" height="365" as="geometry" />
        </mxCell>
        <mxCell id="ZXrHhs4DNnQvtguSSP1A-27" value="" style="whiteSpace=wrap;html=1;" parent="1" vertex="1">
          <mxGeometry x="504" y="525" width="140" height="365" as="geometry" />
        </mxCell>
        <mxCell id="ZXrHhs4DNnQvtguSSP1A-29" value="" style="whiteSpace=wrap;html=1;" parent="1" vertex="1">
          <mxGeometry x="654" y="525" width="140" height="365" as="geometry" />
        </mxCell>
        <mxCell id="ZXrHhs4DNnQvtguSSP1A-31" value="" style="rounded=0;orthogonalLoop=1;jettySize=auto;html=1;endArrow=none;endFill=0;" parent="1" source="ZXrHhs4DNnQvtguSSP1A-32" target="ZXrHhs4DNnQvtguSSP1A-35" edge="1">
          <mxGeometry relative="1" as="geometry" />
        </mxCell>
        <mxCell id="ZXrHhs4DNnQvtguSSP1A-32" value="PRODUCT&lt;br&gt;PAKAGE" style="whiteSpace=wrap;html=1;aspect=fixed;" parent="1" vertex="1">
          <mxGeometry x="-456" y="180" width="120" height="120" as="geometry" />
        </mxCell>
        <mxCell id="ZXrHhs4DNnQvtguSSP1A-33" style="edgeStyle=orthogonalEdgeStyle;rounded=0;orthogonalLoop=1;jettySize=auto;html=1;exitX=0.5;exitY=1;exitDx=0;exitDy=0;" parent="1" source="ZXrHhs4DNnQvtguSSP1A-32" target="ZXrHhs4DNnQvtguSSP1A-32" edge="1">
          <mxGeometry relative="1" as="geometry" />
        </mxCell>
        <mxCell id="ZXrHhs4DNnQvtguSSP1A-34" value="" style="edgeStyle=orthogonalEdgeStyle;rounded=0;orthogonalLoop=1;jettySize=auto;html=1;" parent="1" source="ZXrHhs4DNnQvtguSSP1A-35" target="ZXrHhs4DNnQvtguSSP1A-50" edge="1">
          <mxGeometry relative="1" as="geometry" />
        </mxCell>
        <mxCell id="ZXrHhs4DNnQvtguSSP1A-35" value="PRODUCT&lt;br&gt;CONTROLLER" style="whiteSpace=wrap;html=1;" parent="1" vertex="1">
          <mxGeometry x="-456" y="385" width="120" height="60" as="geometry" />
        </mxCell>
        <mxCell id="ZXrHhs4DNnQvtguSSP1A-36" value="" style="edgeStyle=orthogonalEdgeStyle;rounded=0;orthogonalLoop=1;jettySize=auto;html=1;" parent="1" source="ZXrHhs4DNnQvtguSSP1A-37" target="ZXrHhs4DNnQvtguSSP1A-51" edge="1">
          <mxGeometry relative="1" as="geometry" />
        </mxCell>
        <mxCell id="ZXrHhs4DNnQvtguSSP1A-37" value="PRODUCT&lt;br&gt;SERVICE" style="whiteSpace=wrap;html=1;" parent="1" vertex="1">
          <mxGeometry x="-306" y="385" width="120" height="60" as="geometry" />
        </mxCell>
        <mxCell id="ZXrHhs4DNnQvtguSSP1A-38" value="" style="edgeStyle=orthogonalEdgeStyle;rounded=0;orthogonalLoop=1;jettySize=auto;html=1;" parent="1" source="ZXrHhs4DNnQvtguSSP1A-39" target="ZXrHhs4DNnQvtguSSP1A-52" edge="1">
          <mxGeometry relative="1" as="geometry" />
        </mxCell>
        <mxCell id="ZXrHhs4DNnQvtguSSP1A-39" value="PRODUCT&lt;br&gt;REPOSITORY" style="whiteSpace=wrap;html=1;" parent="1" vertex="1">
          <mxGeometry x="-156" y="385" width="120" height="60" as="geometry" />
        </mxCell>
        <mxCell id="ZXrHhs4DNnQvtguSSP1A-40" value="" style="edgeStyle=orthogonalEdgeStyle;rounded=0;orthogonalLoop=1;jettySize=auto;html=1;" parent="1" source="ZXrHhs4DNnQvtguSSP1A-41" target="ZXrHhs4DNnQvtguSSP1A-49" edge="1">
          <mxGeometry relative="1" as="geometry" />
        </mxCell>
        <mxCell id="ZXrHhs4DNnQvtguSSP1A-41" value="PRODUCT&lt;br&gt;DTO" style="whiteSpace=wrap;html=1;" parent="1" vertex="1">
          <mxGeometry x="-606" y="385" width="120" height="60" as="geometry" />
        </mxCell>
        <mxCell id="ZXrHhs4DNnQvtguSSP1A-42" value="" style="edgeStyle=orthogonalEdgeStyle;rounded=0;orthogonalLoop=1;jettySize=auto;html=1;" parent="1" source="ZXrHhs4DNnQvtguSSP1A-43" edge="1">
          <mxGeometry relative="1" as="geometry">
            <mxPoint x="-710" y="520" as="targetPoint" />
          </mxGeometry>
        </mxCell>
        <mxCell id="ZXrHhs4DNnQvtguSSP1A-43" value="PRODUCT&lt;br style=&quot;border-color: var(--border-color);&quot;&gt;DOMAIN" style="whiteSpace=wrap;html=1;" parent="1" vertex="1">
          <mxGeometry x="-770" y="385" width="120" height="60" as="geometry" />
        </mxCell>
        <mxCell id="ZXrHhs4DNnQvtguSSP1A-44" value="" style="endArrow=none;html=1;rounded=0;exitX=0.5;exitY=0;exitDx=0;exitDy=0;" parent="1" source="ZXrHhs4DNnQvtguSSP1A-37" edge="1">
          <mxGeometry width="50" height="50" relative="1" as="geometry">
            <mxPoint x="-246" y="380" as="sourcePoint" />
            <mxPoint x="-401" y="350" as="targetPoint" />
            <Array as="points">
              <mxPoint x="-246" y="350" />
            </Array>
          </mxGeometry>
        </mxCell>
        <mxCell id="ZXrHhs4DNnQvtguSSP1A-45" value="" style="endArrow=none;html=1;rounded=0;exitX=0.5;exitY=0;exitDx=0;exitDy=0;" parent="1" source="ZXrHhs4DNnQvtguSSP1A-41" edge="1">
          <mxGeometry width="50" height="50" relative="1" as="geometry">
            <mxPoint x="-546" y="380" as="sourcePoint" />
            <mxPoint x="-401" y="350" as="targetPoint" />
            <Array as="points">
              <mxPoint x="-546" y="350" />
            </Array>
          </mxGeometry>
        </mxCell>
        <mxCell id="ZXrHhs4DNnQvtguSSP1A-46" value="" style="endArrow=none;html=1;rounded=0;exitX=0.5;exitY=0;exitDx=0;exitDy=0;" parent="1" source="ZXrHhs4DNnQvtguSSP1A-43" edge="1">
          <mxGeometry width="50" height="50" relative="1" as="geometry">
            <mxPoint x="-446" y="470" as="sourcePoint" />
            <mxPoint x="-401" y="350" as="targetPoint" />
            <Array as="points">
              <mxPoint x="-710" y="350" />
            </Array>
          </mxGeometry>
        </mxCell>
        <mxCell id="ZXrHhs4DNnQvtguSSP1A-47" value="" style="endArrow=none;html=1;rounded=0;exitX=0.549;exitY=-0.003;exitDx=0;exitDy=0;exitPerimeter=0;" parent="1" source="ZXrHhs4DNnQvtguSSP1A-39" edge="1">
          <mxGeometry width="50" height="50" relative="1" as="geometry">
            <mxPoint x="-446" y="470" as="sourcePoint" />
            <mxPoint x="-401" y="350" as="targetPoint" />
            <Array as="points">
              <mxPoint x="-90" y="350" />
            </Array>
          </mxGeometry>
        </mxCell>
        <mxCell id="ZXrHhs4DNnQvtguSSP1A-48" value="&lt;font style=&quot;font-size: 12px;&quot;&gt;private int productIdx;&lt;br style=&quot;box-sizing: inherit; color: rgb(29, 28, 29); font-family: NotoSansKR, Slack-Lato, Slack-Fractions, appleLogo, sans-serif; font-variant-ligatures: common-ligatures; text-align: left; background-color: rgb(255, 255, 255);&quot;&gt;&lt;span style=&quot;color: rgb(29, 28, 29); font-family: NotoSansKR, Slack-Lato, Slack-Fractions, appleLogo, sans-serif; font-variant-ligatures: common-ligatures; text-align: left; background-color: rgb(255, 255, 255);&quot;&gt;private String category;&lt;/span&gt;&lt;br style=&quot;box-sizing: inherit; color: rgb(29, 28, 29); font-family: NotoSansKR, Slack-Lato, Slack-Fractions, appleLogo, sans-serif; font-variant-ligatures: common-ligatures; text-align: left; background-color: rgb(255, 255, 255);&quot;&gt;&lt;span style=&quot;color: rgb(29, 28, 29); font-family: NotoSansKR, Slack-Lato, Slack-Fractions, appleLogo, sans-serif; font-variant-ligatures: common-ligatures; text-align: left; background-color: rgb(255, 255, 255);&quot;&gt;private String name;&lt;/span&gt;&lt;br style=&quot;box-sizing: inherit; color: rgb(29, 28, 29); font-family: NotoSansKR, Slack-Lato, Slack-Fractions, appleLogo, sans-serif; font-variant-ligatures: common-ligatures; text-align: left; background-color: rgb(255, 255, 255);&quot;&gt;&lt;span style=&quot;color: rgb(29, 28, 29); font-family: NotoSansKR, Slack-Lato, Slack-Fractions, appleLogo, sans-serif; font-variant-ligatures: common-ligatures; text-align: left; background-color: rgb(255, 255, 255);&quot;&gt;private int price;&lt;/span&gt;&lt;br style=&quot;box-sizing: inherit; color: rgb(29, 28, 29); font-family: NotoSansKR, Slack-Lato, Slack-Fractions, appleLogo, sans-serif; font-variant-ligatures: common-ligatures; text-align: left; background-color: rgb(255, 255, 255);&quot;&gt;&lt;span style=&quot;color: rgb(29, 28, 29); font-family: NotoSansKR, Slack-Lato, Slack-Fractions, appleLogo, sans-serif; font-variant-ligatures: common-ligatures; text-align: left; background-color: rgb(255, 255, 255);&quot;&gt;private Date add_date;&lt;/span&gt;&lt;/font&gt;&lt;font style=&quot;font-size: 12px;&quot;&gt;&lt;br&gt;&lt;/font&gt;" style="whiteSpace=wrap;html=1;" parent="1" vertex="1">
          <mxGeometry x="-791.5" y="525" width="163" height="365" as="geometry" />
        </mxCell>
        <mxCell id="ZXrHhs4DNnQvtguSSP1A-49" value="" style="whiteSpace=wrap;html=1;" parent="1" vertex="1">
          <mxGeometry x="-616" y="525" width="140" height="365" as="geometry" />
        </mxCell>
        <mxCell id="ZXrHhs4DNnQvtguSSP1A-50" value="" style="whiteSpace=wrap;html=1;" parent="1" vertex="1">
          <mxGeometry x="-466" y="525" width="140" height="365" as="geometry" />
        </mxCell>
        <mxCell id="ZXrHhs4DNnQvtguSSP1A-51" value="" style="whiteSpace=wrap;html=1;" parent="1" vertex="1">
          <mxGeometry x="-316" y="525" width="140" height="365" as="geometry" />
        </mxCell>
        <mxCell id="ZXrHhs4DNnQvtguSSP1A-52" value="" style="whiteSpace=wrap;html=1;" parent="1" vertex="1">
          <mxGeometry x="-166" y="525" width="140" height="365" as="geometry" />
        </mxCell>
        <mxCell id="ZXrHhs4DNnQvtguSSP1A-53" value="" style="rounded=0;orthogonalLoop=1;jettySize=auto;html=1;endArrow=none;endFill=0;" parent="1" source="ZXrHhs4DNnQvtguSSP1A-54" target="ZXrHhs4DNnQvtguSSP1A-57" edge="1">
          <mxGeometry relative="1" as="geometry" />
        </mxCell>
        <mxCell id="ZXrHhs4DNnQvtguSSP1A-54" value="ORDER_LIST&lt;br&gt;PAKAGE" style="whiteSpace=wrap;html=1;aspect=fixed;" parent="1" vertex="1">
          <mxGeometry x="1204" y="180" width="120" height="120" as="geometry" />
        </mxCell>
        <mxCell id="ZXrHhs4DNnQvtguSSP1A-55" style="edgeStyle=orthogonalEdgeStyle;rounded=0;orthogonalLoop=1;jettySize=auto;html=1;exitX=0.5;exitY=1;exitDx=0;exitDy=0;" parent="1" source="ZXrHhs4DNnQvtguSSP1A-54" target="ZXrHhs4DNnQvtguSSP1A-54" edge="1">
          <mxGeometry relative="1" as="geometry" />
        </mxCell>
        <mxCell id="ZXrHhs4DNnQvtguSSP1A-56" value="" style="edgeStyle=orthogonalEdgeStyle;rounded=0;orthogonalLoop=1;jettySize=auto;html=1;" parent="1" source="ZXrHhs4DNnQvtguSSP1A-57" target="ZXrHhs4DNnQvtguSSP1A-72" edge="1">
          <mxGeometry relative="1" as="geometry" />
        </mxCell>
        <mxCell id="ZXrHhs4DNnQvtguSSP1A-57" value="ORDER_LIST&lt;br style=&quot;border-color: var(--border-color);&quot;&gt;CONTROLLER" style="whiteSpace=wrap;html=1;" parent="1" vertex="1">
          <mxGeometry x="1204" y="385" width="120" height="60" as="geometry" />
        </mxCell>
        <mxCell id="ZXrHhs4DNnQvtguSSP1A-58" value="" style="edgeStyle=orthogonalEdgeStyle;rounded=0;orthogonalLoop=1;jettySize=auto;html=1;" parent="1" source="ZXrHhs4DNnQvtguSSP1A-59" target="ZXrHhs4DNnQvtguSSP1A-73" edge="1">
          <mxGeometry relative="1" as="geometry" />
        </mxCell>
        <mxCell id="ZXrHhs4DNnQvtguSSP1A-59" value="ORDER_LIST&lt;br&gt;SERVICE" style="whiteSpace=wrap;html=1;" parent="1" vertex="1">
          <mxGeometry x="1354" y="385" width="120" height="60" as="geometry" />
        </mxCell>
        <mxCell id="ZXrHhs4DNnQvtguSSP1A-60" value="" style="edgeStyle=orthogonalEdgeStyle;rounded=0;orthogonalLoop=1;jettySize=auto;html=1;" parent="1" source="ZXrHhs4DNnQvtguSSP1A-61" target="ZXrHhs4DNnQvtguSSP1A-74" edge="1">
          <mxGeometry relative="1" as="geometry" />
        </mxCell>
        <mxCell id="ZXrHhs4DNnQvtguSSP1A-61" value="ORDER_LIST&lt;br style=&quot;border-color: var(--border-color);&quot;&gt;REPOSITORY" style="whiteSpace=wrap;html=1;" parent="1" vertex="1">
          <mxGeometry x="1504" y="385" width="120" height="60" as="geometry" />
        </mxCell>
        <mxCell id="ZXrHhs4DNnQvtguSSP1A-62" value="" style="edgeStyle=orthogonalEdgeStyle;rounded=0;orthogonalLoop=1;jettySize=auto;html=1;" parent="1" source="ZXrHhs4DNnQvtguSSP1A-63" target="ZXrHhs4DNnQvtguSSP1A-71" edge="1">
          <mxGeometry relative="1" as="geometry" />
        </mxCell>
        <mxCell id="ZXrHhs4DNnQvtguSSP1A-63" value="ORDER_LIST&lt;br style=&quot;border-color: var(--border-color);&quot;&gt;DTO" style="whiteSpace=wrap;html=1;" parent="1" vertex="1">
          <mxGeometry x="1054" y="385" width="120" height="60" as="geometry" />
        </mxCell>
        <mxCell id="ZXrHhs4DNnQvtguSSP1A-64" value="" style="edgeStyle=orthogonalEdgeStyle;rounded=0;orthogonalLoop=1;jettySize=auto;html=1;" parent="1" source="ZXrHhs4DNnQvtguSSP1A-65" target="ZXrHhs4DNnQvtguSSP1A-70" edge="1">
          <mxGeometry relative="1" as="geometry" />
        </mxCell>
        <mxCell id="ZXrHhs4DNnQvtguSSP1A-65" value="ORDER_LIST&lt;br style=&quot;border-color: var(--border-color);&quot;&gt;DOMAIN" style="whiteSpace=wrap;html=1;" parent="1" vertex="1">
          <mxGeometry x="904" y="385" width="120" height="60" as="geometry" />
        </mxCell>
        <mxCell id="ZXrHhs4DNnQvtguSSP1A-66" value="" style="endArrow=none;html=1;rounded=0;exitX=0.5;exitY=0;exitDx=0;exitDy=0;" parent="1" source="ZXrHhs4DNnQvtguSSP1A-59" edge="1">
          <mxGeometry width="50" height="50" relative="1" as="geometry">
            <mxPoint x="1414" y="380" as="sourcePoint" />
            <mxPoint x="1259" y="350" as="targetPoint" />
            <Array as="points">
              <mxPoint x="1414" y="350" />
            </Array>
          </mxGeometry>
        </mxCell>
        <mxCell id="ZXrHhs4DNnQvtguSSP1A-67" value="" style="endArrow=none;html=1;rounded=0;exitX=0.5;exitY=0;exitDx=0;exitDy=0;" parent="1" source="ZXrHhs4DNnQvtguSSP1A-63" edge="1">
          <mxGeometry width="50" height="50" relative="1" as="geometry">
            <mxPoint x="1114" y="380" as="sourcePoint" />
            <mxPoint x="1259" y="350" as="targetPoint" />
            <Array as="points">
              <mxPoint x="1114" y="350" />
            </Array>
          </mxGeometry>
        </mxCell>
        <mxCell id="ZXrHhs4DNnQvtguSSP1A-68" value="" style="endArrow=none;html=1;rounded=0;exitX=0.5;exitY=0;exitDx=0;exitDy=0;" parent="1" source="ZXrHhs4DNnQvtguSSP1A-65" edge="1">
          <mxGeometry width="50" height="50" relative="1" as="geometry">
            <mxPoint x="1214" y="470" as="sourcePoint" />
            <mxPoint x="1259" y="350" as="targetPoint" />
            <Array as="points">
              <mxPoint x="964" y="350" />
            </Array>
          </mxGeometry>
        </mxCell>
        <mxCell id="ZXrHhs4DNnQvtguSSP1A-69" value="" style="endArrow=none;html=1;rounded=0;exitX=0.549;exitY=-0.003;exitDx=0;exitDy=0;exitPerimeter=0;" parent="1" source="ZXrHhs4DNnQvtguSSP1A-61" edge="1">
          <mxGeometry width="50" height="50" relative="1" as="geometry">
            <mxPoint x="1214" y="470" as="sourcePoint" />
            <mxPoint x="1259" y="350" as="targetPoint" />
            <Array as="points">
              <mxPoint x="1570" y="350" />
            </Array>
          </mxGeometry>
        </mxCell>
        <mxCell id="ZXrHhs4DNnQvtguSSP1A-70" value="&lt;font style=&quot;font-size: 12px;&quot;&gt;private int orderIdx&lt;br style=&quot;box-sizing: inherit; color: rgb(29, 28, 29); font-family: NotoSansKR, Slack-Lato, Slack-Fractions, appleLogo, sans-serif; font-variant-ligatures: common-ligatures; text-align: left; background-color: rgb(248, 248, 248);&quot;&gt;&lt;span style=&quot;color: rgb(29, 28, 29); font-family: NotoSansKR, Slack-Lato, Slack-Fractions, appleLogo, sans-serif; font-variant-ligatures: common-ligatures; text-align: left; background-color: rgb(248, 248, 248);&quot;&gt;private int tblProduct&lt;/span&gt;&lt;br style=&quot;box-sizing: inherit; color: rgb(29, 28, 29); font-family: NotoSansKR, Slack-Lato, Slack-Fractions, appleLogo, sans-serif; font-variant-ligatures: common-ligatures; text-align: left; background-color: rgb(248, 248, 248);&quot;&gt;&lt;span style=&quot;color: rgb(29, 28, 29); font-family: NotoSansKR, Slack-Lato, Slack-Fractions, appleLogo, sans-serif; font-variant-ligatures: common-ligatures; text-align: left; background-color: rgb(248, 248, 248);&quot;&gt;private int tblMember&lt;/span&gt;&lt;br style=&quot;box-sizing: inherit; color: rgb(29, 28, 29); font-family: NotoSansKR, Slack-Lato, Slack-Fractions, appleLogo, sans-serif; font-variant-ligatures: common-ligatures; text-align: left; background-color: rgb(248, 248, 248);&quot;&gt;&lt;span style=&quot;color: rgb(29, 28, 29); font-family: NotoSansKR, Slack-Lato, Slack-Fractions, appleLogo, sans-serif; font-variant-ligatures: common-ligatures; text-align: left; background-color: rgb(248, 248, 248);&quot;&gt;private int orderCount&lt;/span&gt;&lt;br style=&quot;box-sizing: inherit; color: rgb(29, 28, 29); font-family: NotoSansKR, Slack-Lato, Slack-Fractions, appleLogo, sans-serif; font-variant-ligatures: common-ligatures; text-align: left; background-color: rgb(248, 248, 248);&quot;&gt;&lt;span style=&quot;color: rgb(29, 28, 29); font-family: NotoSansKR, Slack-Lato, Slack-Fractions, appleLogo, sans-serif; font-variant-ligatures: common-ligatures; text-align: left; background-color: rgb(248, 248, 248);&quot;&gt;private Date&amp;nbsp;orderDate&lt;/span&gt;&lt;/font&gt;" style="whiteSpace=wrap;html=1;" parent="1" vertex="1">
          <mxGeometry x="894" y="525" width="140" height="365" as="geometry" />
        </mxCell>
        <mxCell id="ZXrHhs4DNnQvtguSSP1A-71" value="" style="whiteSpace=wrap;html=1;" parent="1" vertex="1">
          <mxGeometry x="1044" y="525" width="140" height="365" as="geometry" />
        </mxCell>
        <mxCell id="ZXrHhs4DNnQvtguSSP1A-72" value="" style="whiteSpace=wrap;html=1;" parent="1" vertex="1">
          <mxGeometry x="1194" y="525" width="140" height="365" as="geometry" />
        </mxCell>
        <mxCell id="ZXrHhs4DNnQvtguSSP1A-73" value="" style="whiteSpace=wrap;html=1;" parent="1" vertex="1">
          <mxGeometry x="1344" y="525" width="140" height="365" as="geometry" />
        </mxCell>
        <mxCell id="ZXrHhs4DNnQvtguSSP1A-74" value="" style="whiteSpace=wrap;html=1;" parent="1" vertex="1">
          <mxGeometry x="1494" y="525" width="140" height="365" as="geometry" />
        </mxCell>
        <mxCell id="ZXrHhs4DNnQvtguSSP1A-75" value="" style="rounded=0;orthogonalLoop=1;jettySize=auto;html=1;endArrow=none;endFill=0;" parent="1" source="ZXrHhs4DNnQvtguSSP1A-76" target="ZXrHhs4DNnQvtguSSP1A-79" edge="1">
          <mxGeometry relative="1" as="geometry" />
        </mxCell>
        <mxCell id="ZXrHhs4DNnQvtguSSP1A-76" value="PRODUCT_IMG&lt;br&gt;PAKAGE" style="whiteSpace=wrap;html=1;aspect=fixed;" parent="1" vertex="1">
          <mxGeometry x="2024" y="180" width="120" height="120" as="geometry" />
        </mxCell>
        <mxCell id="ZXrHhs4DNnQvtguSSP1A-77" style="edgeStyle=orthogonalEdgeStyle;rounded=0;orthogonalLoop=1;jettySize=auto;html=1;exitX=0.5;exitY=1;exitDx=0;exitDy=0;" parent="1" source="ZXrHhs4DNnQvtguSSP1A-76" target="ZXrHhs4DNnQvtguSSP1A-76" edge="1">
          <mxGeometry relative="1" as="geometry" />
        </mxCell>
        <mxCell id="ZXrHhs4DNnQvtguSSP1A-78" value="" style="edgeStyle=orthogonalEdgeStyle;rounded=0;orthogonalLoop=1;jettySize=auto;html=1;" parent="1" source="ZXrHhs4DNnQvtguSSP1A-79" target="ZXrHhs4DNnQvtguSSP1A-94" edge="1">
          <mxGeometry relative="1" as="geometry" />
        </mxCell>
        <mxCell id="ZXrHhs4DNnQvtguSSP1A-79" value="PRODUCT_IMG&lt;br&gt;CONTROLLER" style="whiteSpace=wrap;html=1;" parent="1" vertex="1">
          <mxGeometry x="2024" y="385" width="120" height="60" as="geometry" />
        </mxCell>
        <mxCell id="ZXrHhs4DNnQvtguSSP1A-80" value="" style="edgeStyle=orthogonalEdgeStyle;rounded=0;orthogonalLoop=1;jettySize=auto;html=1;" parent="1" source="ZXrHhs4DNnQvtguSSP1A-81" target="ZXrHhs4DNnQvtguSSP1A-95" edge="1">
          <mxGeometry relative="1" as="geometry" />
        </mxCell>
        <mxCell id="ZXrHhs4DNnQvtguSSP1A-81" value="PRODUCT_IMG&lt;br&gt;SERVICE" style="whiteSpace=wrap;html=1;" parent="1" vertex="1">
          <mxGeometry x="2174" y="385" width="120" height="60" as="geometry" />
        </mxCell>
        <mxCell id="ZXrHhs4DNnQvtguSSP1A-82" value="" style="edgeStyle=orthogonalEdgeStyle;rounded=0;orthogonalLoop=1;jettySize=auto;html=1;" parent="1" source="ZXrHhs4DNnQvtguSSP1A-83" edge="1">
          <mxGeometry relative="1" as="geometry">
            <mxPoint x="2384" y="525" as="targetPoint" />
          </mxGeometry>
        </mxCell>
        <mxCell id="ZXrHhs4DNnQvtguSSP1A-83" value="PRODUCT_IMG&lt;br&gt;REPOSITORY" style="whiteSpace=wrap;html=1;" parent="1" vertex="1">
          <mxGeometry x="2324" y="385" width="120" height="60" as="geometry" />
        </mxCell>
        <mxCell id="ZXrHhs4DNnQvtguSSP1A-84" value="" style="edgeStyle=orthogonalEdgeStyle;rounded=0;orthogonalLoop=1;jettySize=auto;html=1;" parent="1" source="ZXrHhs4DNnQvtguSSP1A-85" target="ZXrHhs4DNnQvtguSSP1A-93" edge="1">
          <mxGeometry relative="1" as="geometry" />
        </mxCell>
        <mxCell id="ZXrHhs4DNnQvtguSSP1A-85" value="PRODUCT_IMG&lt;br&gt;DTO" style="whiteSpace=wrap;html=1;" parent="1" vertex="1">
          <mxGeometry x="1874" y="385" width="120" height="60" as="geometry" />
        </mxCell>
        <mxCell id="ZXrHhs4DNnQvtguSSP1A-86" value="" style="edgeStyle=orthogonalEdgeStyle;rounded=0;orthogonalLoop=1;jettySize=auto;html=1;" parent="1" source="ZXrHhs4DNnQvtguSSP1A-87" target="ZXrHhs4DNnQvtguSSP1A-92" edge="1">
          <mxGeometry relative="1" as="geometry" />
        </mxCell>
        <mxCell id="ZXrHhs4DNnQvtguSSP1A-87" value="PRODUCT_IMG&lt;br&gt;DOMAIN" style="whiteSpace=wrap;html=1;" parent="1" vertex="1">
          <mxGeometry x="1724" y="385" width="120" height="60" as="geometry" />
        </mxCell>
        <mxCell id="ZXrHhs4DNnQvtguSSP1A-88" value="" style="endArrow=none;html=1;rounded=0;exitX=0.5;exitY=0;exitDx=0;exitDy=0;" parent="1" source="ZXrHhs4DNnQvtguSSP1A-81" edge="1">
          <mxGeometry width="50" height="50" relative="1" as="geometry">
            <mxPoint x="2234" y="380" as="sourcePoint" />
            <mxPoint x="2079" y="350" as="targetPoint" />
            <Array as="points">
              <mxPoint x="2234" y="350" />
            </Array>
          </mxGeometry>
        </mxCell>
        <mxCell id="ZXrHhs4DNnQvtguSSP1A-89" value="" style="endArrow=none;html=1;rounded=0;exitX=0.5;exitY=0;exitDx=0;exitDy=0;" parent="1" source="ZXrHhs4DNnQvtguSSP1A-85" edge="1">
          <mxGeometry width="50" height="50" relative="1" as="geometry">
            <mxPoint x="1934" y="380" as="sourcePoint" />
            <mxPoint x="2079" y="350" as="targetPoint" />
            <Array as="points">
              <mxPoint x="1934" y="350" />
            </Array>
          </mxGeometry>
        </mxCell>
        <mxCell id="ZXrHhs4DNnQvtguSSP1A-90" value="" style="endArrow=none;html=1;rounded=0;exitX=0.5;exitY=0;exitDx=0;exitDy=0;" parent="1" source="ZXrHhs4DNnQvtguSSP1A-87" edge="1">
          <mxGeometry width="50" height="50" relative="1" as="geometry">
            <mxPoint x="2034" y="470" as="sourcePoint" />
            <mxPoint x="2079" y="350" as="targetPoint" />
            <Array as="points">
              <mxPoint x="1784" y="350" />
            </Array>
          </mxGeometry>
        </mxCell>
        <mxCell id="ZXrHhs4DNnQvtguSSP1A-91" value="" style="endArrow=none;html=1;rounded=0;exitX=0.549;exitY=-0.003;exitDx=0;exitDy=0;exitPerimeter=0;" parent="1" source="ZXrHhs4DNnQvtguSSP1A-83" edge="1">
          <mxGeometry width="50" height="50" relative="1" as="geometry">
            <mxPoint x="2034" y="470" as="sourcePoint" />
            <mxPoint x="2079" y="350" as="targetPoint" />
            <Array as="points">
              <mxPoint x="2390" y="350" />
            </Array>
          </mxGeometry>
        </mxCell>
        <mxCell id="ZXrHhs4DNnQvtguSSP1A-92" value="&lt;font style=&quot;font-size: 12px;&quot;&gt;private int productImgIdx;&lt;br style=&quot;box-sizing: inherit; color: rgb(29, 28, 29); font-family: NotoSansKR, Slack-Lato, Slack-Fractions, appleLogo, sans-serif; font-variant-ligatures: common-ligatures; text-align: left; background-color: rgb(255, 255, 255);&quot;&gt;&lt;span style=&quot;color: rgb(29, 28, 29); font-family: NotoSansKR, Slack-Lato, Slack-Fractions, appleLogo, sans-serif; font-variant-ligatures: common-ligatures; text-align: left; background-color: rgb(255, 255, 255);&quot;&gt;private String file;&lt;/span&gt;&lt;/font&gt;" style="whiteSpace=wrap;html=1;" parent="1" vertex="1">
          <mxGeometry x="1714" y="525" width="140" height="365" as="geometry" />
        </mxCell>
        <mxCell id="ZXrHhs4DNnQvtguSSP1A-93" value="" style="whiteSpace=wrap;html=1;" parent="1" vertex="1">
          <mxGeometry x="1864" y="525" width="140" height="365" as="geometry" />
        </mxCell>
        <mxCell id="ZXrHhs4DNnQvtguSSP1A-94" value="" style="whiteSpace=wrap;html=1;" parent="1" vertex="1">
          <mxGeometry x="2014" y="525" width="140" height="365" as="geometry" />
        </mxCell>
        <mxCell id="ZXrHhs4DNnQvtguSSP1A-95" value="" style="whiteSpace=wrap;html=1;" parent="1" vertex="1">
          <mxGeometry x="2164" y="525" width="140" height="365" as="geometry" />
        </mxCell>
        <mxCell id="ZXrHhs4DNnQvtguSSP1A-96" value="" style="whiteSpace=wrap;html=1;" parent="1" vertex="1">
          <mxGeometry x="2314" y="525" width="140" height="365" as="geometry" />
        </mxCell>
        <mxCell id="ZXrHhs4DNnQvtguSSP1A-97" value="" style="rounded=0;orthogonalLoop=1;jettySize=auto;html=1;endArrow=none;endFill=0;" parent="1" source="ZXrHhs4DNnQvtguSSP1A-98" target="ZXrHhs4DNnQvtguSSP1A-101" edge="1">
          <mxGeometry relative="1" as="geometry" />
        </mxCell>
        <mxCell id="ZXrHhs4DNnQvtguSSP1A-98" value="MEMBER&lt;br&gt;PAKAGE" style="whiteSpace=wrap;html=1;aspect=fixed;" parent="1" vertex="1">
          <mxGeometry x="-1316" y="190" width="120" height="120" as="geometry" />
        </mxCell>
        <mxCell id="ZXrHhs4DNnQvtguSSP1A-99" style="edgeStyle=orthogonalEdgeStyle;rounded=0;orthogonalLoop=1;jettySize=auto;html=1;exitX=0.5;exitY=1;exitDx=0;exitDy=0;" parent="1" source="ZXrHhs4DNnQvtguSSP1A-98" target="ZXrHhs4DNnQvtguSSP1A-98" edge="1">
          <mxGeometry relative="1" as="geometry" />
        </mxCell>
        <mxCell id="ZXrHhs4DNnQvtguSSP1A-100" value="" style="edgeStyle=orthogonalEdgeStyle;rounded=0;orthogonalLoop=1;jettySize=auto;html=1;" parent="1" source="ZXrHhs4DNnQvtguSSP1A-101" target="ZXrHhs4DNnQvtguSSP1A-116" edge="1">
          <mxGeometry relative="1" as="geometry" />
        </mxCell>
        <mxCell id="ZXrHhs4DNnQvtguSSP1A-101" value="MEMBER&lt;br style=&quot;border-color: var(--border-color);&quot;&gt;CONTROLLER" style="whiteSpace=wrap;html=1;" parent="1" vertex="1">
          <mxGeometry x="-1316" y="395" width="120" height="60" as="geometry" />
        </mxCell>
        <mxCell id="ZXrHhs4DNnQvtguSSP1A-102" value="" style="edgeStyle=orthogonalEdgeStyle;rounded=0;orthogonalLoop=1;jettySize=auto;html=1;" parent="1" source="ZXrHhs4DNnQvtguSSP1A-103" target="ZXrHhs4DNnQvtguSSP1A-117" edge="1">
          <mxGeometry relative="1" as="geometry" />
        </mxCell>
        <mxCell id="ZXrHhs4DNnQvtguSSP1A-103" value="MEMBER&lt;br&gt;SERVICE" style="whiteSpace=wrap;html=1;" parent="1" vertex="1">
          <mxGeometry x="-1166" y="395" width="120" height="60" as="geometry" />
        </mxCell>
        <mxCell id="ZXrHhs4DNnQvtguSSP1A-104" value="" style="edgeStyle=orthogonalEdgeStyle;rounded=0;orthogonalLoop=1;jettySize=auto;html=1;" parent="1" source="ZXrHhs4DNnQvtguSSP1A-105" target="ZXrHhs4DNnQvtguSSP1A-118" edge="1">
          <mxGeometry relative="1" as="geometry" />
        </mxCell>
        <mxCell id="ZXrHhs4DNnQvtguSSP1A-105" value="MEMBER&lt;br&gt;REPOSITORY" style="whiteSpace=wrap;html=1;" parent="1" vertex="1">
          <mxGeometry x="-1016" y="395" width="120" height="60" as="geometry" />
        </mxCell>
        <mxCell id="ZXrHhs4DNnQvtguSSP1A-106" value="" style="edgeStyle=orthogonalEdgeStyle;rounded=0;orthogonalLoop=1;jettySize=auto;html=1;" parent="1" source="ZXrHhs4DNnQvtguSSP1A-107" target="ZXrHhs4DNnQvtguSSP1A-115" edge="1">
          <mxGeometry relative="1" as="geometry" />
        </mxCell>
        <mxCell id="ZXrHhs4DNnQvtguSSP1A-107" value="MEMBER&lt;br style=&quot;border-color: var(--border-color);&quot;&gt;DTO" style="whiteSpace=wrap;html=1;" parent="1" vertex="1">
          <mxGeometry x="-1466" y="395" width="120" height="60" as="geometry" />
        </mxCell>
        <mxCell id="ZXrHhs4DNnQvtguSSP1A-108" value="" style="edgeStyle=orthogonalEdgeStyle;rounded=0;orthogonalLoop=1;jettySize=auto;html=1;" parent="1" source="ZXrHhs4DNnQvtguSSP1A-109" target="ZXrHhs4DNnQvtguSSP1A-114" edge="1">
          <mxGeometry relative="1" as="geometry" />
        </mxCell>
        <mxCell id="ZXrHhs4DNnQvtguSSP1A-109" value="MEMBER&lt;br style=&quot;border-color: var(--border-color);&quot;&gt;DOMAIN" style="whiteSpace=wrap;html=1;" parent="1" vertex="1">
          <mxGeometry x="-1616" y="395" width="120" height="60" as="geometry" />
        </mxCell>
        <mxCell id="ZXrHhs4DNnQvtguSSP1A-110" value="" style="endArrow=none;html=1;rounded=0;exitX=0.5;exitY=0;exitDx=0;exitDy=0;" parent="1" source="ZXrHhs4DNnQvtguSSP1A-103" edge="1">
          <mxGeometry width="50" height="50" relative="1" as="geometry">
            <mxPoint x="-1106" y="390" as="sourcePoint" />
            <mxPoint x="-1261" y="360" as="targetPoint" />
            <Array as="points">
              <mxPoint x="-1106" y="360" />
            </Array>
          </mxGeometry>
        </mxCell>
        <mxCell id="ZXrHhs4DNnQvtguSSP1A-111" value="" style="endArrow=none;html=1;rounded=0;exitX=0.5;exitY=0;exitDx=0;exitDy=0;" parent="1" source="ZXrHhs4DNnQvtguSSP1A-107" edge="1">
          <mxGeometry width="50" height="50" relative="1" as="geometry">
            <mxPoint x="-1406" y="390" as="sourcePoint" />
            <mxPoint x="-1261" y="360" as="targetPoint" />
            <Array as="points">
              <mxPoint x="-1406" y="360" />
            </Array>
          </mxGeometry>
        </mxCell>
        <mxCell id="ZXrHhs4DNnQvtguSSP1A-112" value="" style="endArrow=none;html=1;rounded=0;exitX=0.5;exitY=0;exitDx=0;exitDy=0;" parent="1" source="ZXrHhs4DNnQvtguSSP1A-109" edge="1">
          <mxGeometry width="50" height="50" relative="1" as="geometry">
            <mxPoint x="-1306" y="480" as="sourcePoint" />
            <mxPoint x="-1261" y="360" as="targetPoint" />
            <Array as="points">
              <mxPoint x="-1556" y="360" />
            </Array>
          </mxGeometry>
        </mxCell>
        <mxCell id="ZXrHhs4DNnQvtguSSP1A-113" value="" style="endArrow=none;html=1;rounded=0;exitX=0.549;exitY=-0.003;exitDx=0;exitDy=0;exitPerimeter=0;" parent="1" source="ZXrHhs4DNnQvtguSSP1A-105" edge="1">
          <mxGeometry width="50" height="50" relative="1" as="geometry">
            <mxPoint x="-1306" y="480" as="sourcePoint" />
            <mxPoint x="-1261" y="360" as="targetPoint" />
            <Array as="points">
              <mxPoint x="-950" y="360" />
            </Array>
          </mxGeometry>
        </mxCell>
        <mxCell id="ZXrHhs4DNnQvtguSSP1A-114" value="private Long memberIdx;&lt;br&gt;private char gender;&lt;br&gt;private String name;&lt;br&gt;private String id;&lt;br&gt;private String password;&lt;br&gt;private Date birth;&lt;br&gt;private String tel;&lt;br&gt;private String addr;&lt;br&gt;private short rank;&lt;br&gt;private int point;&lt;br&gt;private Date regDate;&lt;br&gt;private Date modifyDate;" style="whiteSpace=wrap;html=1;" parent="1" vertex="1">
          <mxGeometry x="-1626" y="535" width="140" height="365" as="geometry" />
        </mxCell>
        <mxCell id="ZXrHhs4DNnQvtguSSP1A-115" value="" style="whiteSpace=wrap;html=1;" parent="1" vertex="1">
          <mxGeometry x="-1476" y="535" width="140" height="365" as="geometry" />
        </mxCell>
        <mxCell id="ZXrHhs4DNnQvtguSSP1A-116" value="" style="whiteSpace=wrap;html=1;" parent="1" vertex="1">
          <mxGeometry x="-1326" y="535" width="140" height="365" as="geometry" />
        </mxCell>
        <mxCell id="ZXrHhs4DNnQvtguSSP1A-117" value="" style="whiteSpace=wrap;html=1;" parent="1" vertex="1">
          <mxGeometry x="-1176" y="535" width="140" height="365" as="geometry" />
        </mxCell>
        <mxCell id="ZXrHhs4DNnQvtguSSP1A-118" value="" style="whiteSpace=wrap;html=1;" parent="1" vertex="1">
          <mxGeometry x="-1026" y="535" width="140" height="365" as="geometry" />
        </mxCell>
      </root>
    </mxGraphModel>
  </diagram>
</mxfile>
